<svg width="1024" height="1024" viewBox="0 0 1024 1024" fill="none" xmlns="http://www.w3.org/2000/svg">
<path d="M749.511 480.016C825.2 479.687 896.585 497.749 959.627 529.906C950.223 769.019 753.413 959.98 511.992 959.98C478.036 959.98 444.963 956.2 413.169 949.043C412.582 948.911 411.996 948.777 411.409 948.642L410.526 948.44C409.891 948.293 409.256 948.145 408.621 947.994C408.031 947.854 407.442 947.713 406.854 947.571C366.846 937.934 328.939 922.925 293.92 903.362L293.937 903.142C294.581 894.811 295.451 886.498 296.548 878.214C315.172 737.627 397.486 617.004 513.758 546.412C514.372 546.039 514.973 545.645 515.561 545.232C583.947 504.157 663.939 480.39 749.511 480.016Z" fill="url(#paint0_linear_340_35)"/>
<defs>
<linearGradient id="paint0_linear_340_35" x1="284.3" y1="948.5" x2="1229.5" y2="948.5" gradientUnits="userSpaceOnUse">
<stop stop-color="#FFE147"/>
<stop offset="1" stop-color="#FF4E13"/>
</linearGradient>
</defs>
</svg>
