<svg xmlns="http://www.w3.org/2000/svg" xml:space="preserve" stroke-miterlimit="10" style="fill-rule:nonzero;clip-rule:evenodd;stroke-linecap:round;stroke-linejoin:round" viewBox="0 0 1024 1024"><defs><linearGradient id="b" x1="200.954" x2="810.903" y1="318.391" y2="318.391" gradientTransform="matrix(1.84924 0 0 .31128 -452.414 -55.699)" gradientUnits="userSpaceOnUse"><stop offset=".001" stop-color="#ffaf65"/><stop offset="1" stop-color="#ffcb4c"/></linearGradient><linearGradient id="c" x1="200.954" x2="810.903" y1="318.391" y2="318.391" gradientTransform="matrix(2.20243 0 0 .2936 -602.272 33.056)" gradientUnits="userSpaceOnUse"><stop offset=".001" stop-color="#ffaf65"/><stop offset="1" stop-color="#ffcb4c"/></linearGradient><linearGradient id="d" x1="200.954" x2="810.903" y1="318.391" y2="318.391" gradientTransform="matrix(1.84924 0 0 .31128 -452.414 116.432)" gradientUnits="userSpaceOnUse"><stop offset=".001" stop-color="#ffaf65"/><stop offset="1" stop-color="#ffcb4c"/></linearGradient><linearGradient id="e" x1="200.954" x2="810.903" y1="318.391" y2="318.391" gradientTransform="matrix(2.20243 0 0 .2936 -602.272 205.187)" gradientUnits="userSpaceOnUse"><stop offset=".001" stop-color="#ffaf65"/><stop offset="1" stop-color="#ffcb4c"/></linearGradient><linearGradient id="f" x1="200.954" x2="810.903" y1="318.391" y2="318.391" gradientTransform="matrix(1.84924 0 0 .31128 -452.414 285.93)" gradientUnits="userSpaceOnUse"><stop offset=".001" stop-color="#ffaf65"/><stop offset="1" stop-color="#ffcb4c"/></linearGradient><linearGradient id="g" x1="200.954" x2="810.903" y1="318.391" y2="318.391" gradientTransform="matrix(2.20243 0 0 .2936 -602.272 374.685)" gradientUnits="userSpaceOnUse"><stop offset=".001" stop-color="#ffaf65"/><stop offset="1" stop-color="#ffcb4c"/></linearGradient><linearGradient id="h" x1="200.954" x2="810.903" y1="318.391" y2="318.391" gradientTransform="matrix(1.84924 0 0 .31128 -452.414 458.061)" gradientUnits="userSpaceOnUse"><stop offset=".001" stop-color="#ffaf65"/><stop offset="1" stop-color="#ffcb4c"/></linearGradient><linearGradient id="i" x1="200.954" x2="810.903" y1="318.391" y2="318.391" gradientTransform="matrix(2.20243 0 0 .2936 -602.272 546.816)" gradientUnits="userSpaceOnUse"><stop offset=".001" stop-color="#ffaf65"/><stop offset="1" stop-color="#ffcb4c"/></linearGradient><linearGradient id="j" x1="200.954" x2="810.903" y1="318.391" y2="318.391" gradientTransform="matrix(1.84924 0 0 .31128 -452.414 627.839)" gradientUnits="userSpaceOnUse"><stop offset=".001" stop-color="#ffaf65"/><stop offset="1" stop-color="#ffcb4c"/></linearGradient><linearGradient id="k" x1="200.954" x2="810.903" y1="318.391" y2="318.391" gradientTransform="matrix(2.20243 0 0 .2936 -602.272 716.594)" gradientUnits="userSpaceOnUse"><stop offset=".001" stop-color="#ffaf65"/><stop offset="1" stop-color="#ffcb4c"/></linearGradient><linearGradient id="l" x1="200.954" x2="810.903" y1="318.391" y2="318.391" gradientTransform="matrix(1.84924 0 0 .31128 -452.414 799.97)" gradientUnits="userSpaceOnUse"><stop offset=".001" stop-color="#ffaf65"/><stop offset="1" stop-color="#ffcb4c"/></linearGradient><linearGradient id="m" x1="200.954" x2="810.903" y1="318.391" y2="318.391" gradientTransform="matrix(2.20243 0 0 .2936 -602.272 888.725)" gradientUnits="userSpaceOnUse"><stop offset=".001" stop-color="#ffaf65"/><stop offset="1" stop-color="#ffcb4c"/></linearGradient></defs><clipPath id="a"><path d="M0 0h1024v1024H0z"/></clipPath><g clip-path="url(#a)"><path fill="url(#b)" d="M-77.282 28.831h22.9v5.234l-14.684 15.327h15.22v5.627h-24.848v-5.43l14.523-15.166h-13.111V28.83Zm27.402 0h8.11V55.02h-8.11V28.83Zm13.826 0h10.646l4.109 15.934 4.09-15.934h10.611V55.02h-6.61V35.048l-5.126 19.97h-5.984l-5.11-19.97v19.97h-6.626V28.832Zm33.6 13.112q0-6.413 3.573-9.986 3.573-3.572 9.95-3.572 6.538 0 10.075 3.51t3.537 9.834q0 4.59-1.546 7.529-1.545 2.938-4.465 4.573t-7.28 1.634q-4.43 0-7.333-1.41-2.903-1.412-4.706-4.467-1.805-3.054-1.805-7.645m8.092.036q0 3.965 1.474 5.698 1.475 1.733 4.01 1.733 2.61 0 4.037-1.697 1.43-1.697 1.43-6.092 0-3.697-1.492-5.403-1.491-1.707-4.046-1.706-2.448 0-3.93 1.733-1.482 1.732-1.483 5.734m83.743-13.148h22.901v5.234L97.598 49.392h15.219v5.627H87.97v-5.43l14.523-15.166H89.381V28.83Zm27.402 0h8.11V55.02h-8.11V28.83Zm13.826 0h10.647l4.108 15.934 4.091-15.934h10.611V55.02h-6.61V35.048l-5.126 19.97h-5.985l-5.109-19.97v19.97h-6.627V28.832Zm33.601 13.112q0-6.413 3.573-9.986 3.572-3.572 9.949-3.572 6.538 0 10.075 3.51t3.537 9.834q0 4.59-1.545 7.529t-4.466 4.573q-2.92 1.635-7.279 1.634-4.43 0-7.333-1.41-2.903-1.412-4.707-4.467t-1.804-7.645m8.092.036q0 3.965 1.474 5.698t4.01 1.733q2.608 0 4.037-1.697 1.43-1.697 1.429-6.092 0-3.697-1.492-5.403-1.491-1.707-4.046-1.706-2.447 0-3.929 1.733-1.483 1.732-1.483 5.734m83.743-13.148h22.9v5.234l-14.683 15.327h15.219v5.627h-24.848v-5.43l14.523-15.166h-13.111V28.83Zm27.402 0h8.11V55.02h-8.11V28.83Zm13.826 0h10.646l4.109 15.934 4.09-15.934h10.611V55.02h-6.609V35.048l-5.127 19.97h-5.984l-5.109-19.97v19.97h-6.627V28.832Zm33.6 13.112q0-6.413 3.573-9.986 3.572-3.572 9.95-3.572 6.538 0 10.075 3.51t3.537 9.834q0 4.59-1.546 7.529-1.545 2.938-4.465 4.573t-7.28 1.634q-4.43 0-7.332-1.41-2.904-1.412-4.707-4.467-1.805-3.054-1.805-7.645m8.092.036q0 3.965 1.474 5.698t4.01 1.733q2.609 0 4.037-1.697 1.43-1.697 1.43-6.092 0-3.697-1.492-5.403-1.491-1.707-4.046-1.706-2.448 0-3.93 1.733-1.482 1.732-1.483 5.734m83.743-13.148h22.901v5.234l-14.684 15.327h15.22v5.627h-24.848v-5.43l14.523-15.166h-13.112V28.83Zm27.402 0h8.11V55.02h-8.11V28.83Zm13.826 0h10.647l4.108 15.934 4.091-15.934h10.611V55.02h-6.61V35.048l-5.126 19.97h-5.985l-5.109-19.97v19.97h-6.627V28.832Zm33.601 13.112q0-6.413 3.573-9.986 3.572-3.572 9.949-3.572 6.538 0 10.075 3.51t3.537 9.834q0 4.59-1.545 7.529t-4.466 4.573q-2.92 1.635-7.279 1.634-4.43 0-7.333-1.41-2.903-1.412-4.707-4.467t-1.804-7.645m8.092.036q0 3.965 1.474 5.698t4.01 1.733q2.608 0 4.037-1.697 1.43-1.697 1.429-6.092 0-3.697-1.492-5.403-1.491-1.707-4.046-1.706-2.447 0-3.929 1.733-1.483 1.732-1.483 5.734m83.743-13.148h22.9v5.234l-14.683 15.327h15.219v5.627H587.96v-5.43l14.523-15.166h-13.111V28.83Zm27.402 0h8.11V55.02h-8.11V28.83Zm13.826 0h10.646l4.109 15.934 4.09-15.934h10.611V55.02h-6.609V35.048l-5.127 19.97h-5.984l-5.109-19.97v19.97H630.6V28.832Zm33.6 13.112q0-6.413 3.573-9.986 3.572-3.572 9.95-3.572 6.537 0 10.075 3.51t3.537 9.834q0 4.59-1.546 7.529-1.545 2.938-4.465 4.573t-7.28 1.634q-4.43 0-7.332-1.41-2.904-1.412-4.707-4.467-1.805-3.054-1.805-7.645m8.092.036q0 3.965 1.474 5.698t4.01 1.733q2.608 0 4.038-1.697 1.428-1.697 1.429-6.092 0-3.697-1.492-5.403-1.491-1.707-4.046-1.706-2.447 0-3.93 1.733-1.483 1.732-1.483 5.734m83.743-13.148h22.901v5.234l-14.684 15.327h15.22v5.627h-24.848v-5.43l14.523-15.166h-13.112V28.83Zm27.402 0h8.11V55.02h-8.11V28.83Zm13.826 0h10.647l4.108 15.934 4.091-15.934h10.611V55.02h-6.61V35.048l-5.126 19.97h-5.985l-5.108-19.97v19.97h-6.628V28.832Zm33.601 13.112q0-6.413 3.573-9.986 3.572-3.572 9.949-3.572 6.538 0 10.075 3.51t3.537 9.834q0 4.59-1.545 7.529t-4.466 4.573q-2.92 1.635-7.279 1.634-4.43 0-7.333-1.41-2.902-1.412-4.707-4.467t-1.804-7.645m8.092.036q0 3.965 1.474 5.698t4.01 1.733q2.608 0 4.037-1.697 1.43-1.697 1.429-6.092 0-3.697-1.491-5.403-1.492-1.707-4.047-1.706-2.447 0-3.929 1.733-1.483 1.732-1.483 5.734m83.743-13.148h22.9v5.234l-14.683 15.327h15.219v5.627h-24.848v-5.43l14.523-15.166h-13.111V28.83Zm27.402 0h8.11V55.02h-8.11V28.83Zm13.826 0h10.646l4.109 15.934 4.09-15.934h10.611V55.02h-6.609V35.048l-5.127 19.97h-5.984l-5.109-19.97v19.97h-6.627V28.832Zm33.6 13.112q0-6.413 3.573-9.986c2.38-2.381 5.7-3.572 9.95-3.572 4.36 0 7.72 1.17 10.07 3.51q3.54 3.51 3.54 9.834c0 3.06-.51 5.57-1.54 7.529q-1.545 2.938-4.47 4.573c-1.95 1.09-4.37 1.634-7.28 1.634-2.95 0-5.4-.47-7.33-1.41q-2.91-1.412-4.708-4.467-1.805-3.054-1.805-7.645m8.093.036q0 3.965 1.47 5.698c.99 1.155 2.32 1.733 4.01 1.733 1.74 0 3.09-.566 4.04-1.697s1.43-3.162 1.43-6.092c0-2.465-.5-4.266-1.49-5.403q-1.5-1.707-4.05-1.706-2.445 0-3.93 1.733c-.99 1.155-1.48 3.066-1.48 5.734"/><path fill="url(#c)" d="M-156.165 113.569h22.9v5.234l-14.683 15.326h15.219v5.627h-24.847v-5.43l14.522-15.166h-13.111zm27.402 0h8.11v26.187h-8.11zm13.826 0h10.646l4.109 15.934 4.09-15.934h10.611v26.187h-6.609v-19.971l-5.127 19.971h-5.984l-5.109-19.971v19.971h-6.627zm33.601 13.111q0-6.413 3.572-9.985 3.573-3.573 9.95-3.573 6.538 0 10.075 3.51t3.537 9.834q0 4.59-1.545 7.529-1.546 2.938-4.466 4.573t-7.28 1.635q-4.43 0-7.332-1.412-2.903-1.41-4.707-4.465t-1.804-7.646m8.092.036q0 3.966 1.473 5.698 1.475 1.733 4.01 1.733 2.61 0 4.038-1.697t1.429-6.091q0-3.698-1.492-5.404t-4.046-1.706q-2.447 0-3.93 1.733-1.482 1.732-1.482 5.734m83.742-13.147h22.9v5.234l-14.683 15.326h15.22v5.627H9.087v-5.43L23.61 119.16H10.498zm27.402 0h8.11v26.187H37.9zm13.827 0h10.646l4.108 15.934 4.091-15.934h10.61v26.187h-6.609v-19.971l-5.126 19.971h-5.984l-5.11-19.971v19.971h-6.627zm33.6 13.111q0-6.413 3.573-9.985 3.572-3.573 9.95-3.573 6.537 0 10.074 3.51t3.537 9.834q0 4.59-1.545 7.529t-4.466 4.573-7.279 1.635q-4.43 0-7.333-1.412-2.903-1.41-4.707-4.465t-1.804-7.646m8.092.036q0 3.966 1.474 5.698t4.01 1.733q2.609 0 4.037-1.697 1.43-1.697 1.429-6.091 0-3.698-1.491-5.404t-4.046-1.706q-2.448 0-3.93 1.733-1.483 1.732-1.483 5.734m83.743-13.147h22.9v5.234l-14.683 15.326h15.219v5.627h-24.847v-5.43l14.522-15.166h-13.111zm27.402 0h8.11v26.187h-8.11zm13.826 0h10.646l4.109 15.934 4.091-15.934h10.61v26.187h-6.609v-19.971l-5.127 19.971h-5.984l-5.109-19.971v19.971h-6.627zm33.601 13.111q0-6.413 3.572-9.985 3.573-3.573 9.95-3.573 6.538 0 10.075 3.51t3.537 9.834q0 4.59-1.545 7.529t-4.466 4.573-7.279 1.635q-4.43 0-7.333-1.412-2.903-1.41-4.707-4.465t-1.804-7.646m8.092.036q0 3.966 1.473 5.698 1.475 1.733 4.011 1.733 2.607 0 4.037-1.697 1.428-1.697 1.429-6.091 0-3.698-1.492-5.404t-4.046-1.706q-2.447 0-3.93 1.733-1.482 1.732-1.482 5.734m83.742-13.147h22.901v5.234l-14.684 15.326h15.22v5.627h-24.848v-5.43l14.523-15.166h-13.112zm27.402 0h8.11v26.187h-8.11zm13.827 0H395.7l4.109 15.934 4.09-15.934h10.611v26.187h-6.609v-19.971l-5.127 19.971h-5.984l-5.109-19.971v19.971h-6.627zm33.6 13.111q0-6.413 3.573-9.985 3.573-3.573 9.95-3.573 6.538 0 10.074 3.51 3.537 3.51 3.537 9.834 0 4.59-1.545 7.529t-4.466 4.573-7.279 1.635q-4.43 0-7.333-1.412-2.903-1.41-4.707-4.465t-1.804-7.646m8.092.036q0 3.966 1.474 5.698t4.01 1.733q2.609 0 4.037-1.697 1.43-1.697 1.429-6.091 0-3.698-1.491-5.404t-4.046-1.706q-2.448 0-3.93 1.733-1.483 1.732-1.483 5.734m83.743-13.147h22.9v5.234l-14.683 15.326h15.219v5.627h-24.847v-5.43L523.6 119.16h-13.111zm27.402 0h8.11v26.187h-8.11zm13.826 0h10.647l4.108 15.934 4.091-15.934h10.61v26.187h-6.609v-19.971l-5.127 19.971h-5.984l-5.109-19.971v19.971h-6.627zm33.601 13.111q0-6.413 3.572-9.985 3.573-3.573 9.95-3.573 6.538 0 10.075 3.51t3.537 9.834q0 4.59-1.545 7.529t-4.466 4.573-7.279 1.635q-4.43 0-7.333-1.412-2.902-1.41-4.707-4.465t-1.804-7.646m8.092.036q0 3.966 1.473 5.698 1.475 1.733 4.011 1.733 2.607 0 4.037-1.697t1.429-6.091q0-3.698-1.492-5.404t-4.046-1.706q-2.446 0-3.93 1.733-1.482 1.732-1.482 5.734m83.742-13.147h22.901v5.234l-14.684 15.326h15.22v5.627h-24.848v-5.43l14.523-15.166h-13.112zm27.402 0h8.11v26.187h-8.11zm13.827 0h10.646l4.109 15.934 4.09-15.934h10.611v26.187h-6.609v-19.971l-5.127 19.971h-5.984l-5.109-19.971v19.971h-6.627zm33.6 13.111q0-6.413 3.573-9.985 3.572-3.573 9.95-3.573 6.538 0 10.074 3.51 3.537 3.51 3.537 9.834 0 4.59-1.545 7.529t-4.466 4.573q-2.92 1.635-7.279 1.635-4.43 0-7.333-1.412-2.903-1.41-4.707-4.465t-1.804-7.646m8.092.036q0 3.966 1.474 5.698t4.01 1.733q2.609 0 4.037-1.697 1.43-1.697 1.429-6.091 0-3.698-1.491-5.404t-4.046-1.706q-2.448 0-3.93 1.733-1.483 1.732-1.483 5.734m83.743-13.147h22.9v5.234l-14.683 15.326h15.219v5.627h-24.847v-5.43l14.522-15.166h-13.111zm27.402 0h8.11v26.187h-8.11zm13.826 0h10.647l4.108 15.934 4.091-15.934h10.61v26.187h-6.609v-19.971l-5.127 19.971h-5.984l-5.109-19.971v19.971h-6.627zm33.601 13.111q0-6.413 3.572-9.985 3.573-3.573 9.95-3.573 6.538 0 10.075 3.51t3.537 9.834q0 4.59-1.545 7.529t-4.466 4.573-7.279 1.635q-4.43 0-7.333-1.412-2.903-1.41-4.707-4.465t-1.804-7.646m8.092.036q0 3.966 1.473 5.698t4.011 1.733q2.607 0 4.037-1.697t1.429-6.091q0-3.698-1.492-5.404t-4.046-1.706q-2.447 0-3.93 1.733-1.482 1.732-1.482 5.734m83.743-13.147h22.9v5.234l-14.68 15.326h15.22v5.627h-24.85v-5.43l14.52-15.166h-13.11zm27.4 0h8.11v26.187h-8.11zm13.83 0h10.64l4.11 15.934 4.09-15.934h10.61v26.187h-6.61v-19.971l-5.12 19.971h-5.99l-5.11-19.971v19.971h-6.62zm33.6 13.111q0-6.413 3.57-9.985c2.38-2.382 5.7-3.573 9.95-3.573q6.54 0 10.08 3.51c2.35 2.34 3.53 5.618 3.53 9.834 0 3.06-.51 5.57-1.54 7.529q-1.545 2.938-4.47 4.573c-1.95 1.09-4.37 1.635-7.28 1.635-2.95 0-5.4-.471-7.33-1.412-1.94-.94-3.5-2.429-4.71-4.465q-1.8-3.055-1.8-7.646m8.09.036q0 3.966 1.47 5.698c.99 1.155 2.32 1.733 4.01 1.733 1.74 0 3.09-.566 4.04-1.697s1.43-3.162 1.43-6.091c0-2.465-.5-4.267-1.49-5.404-1-1.137-2.34-1.706-4.05-1.706q-2.445 0-3.93 1.733c-.99 1.155-1.48 3.066-1.48 5.734"/><path fill="url(#d)" d="M-77.282 200.962h22.9v5.234l-14.684 15.327h15.22v5.627h-24.848v-5.431l14.523-15.166h-13.111zm27.402 0h8.11v26.188h-8.11zm13.826 0h10.646l4.109 15.934 4.09-15.934h10.611v26.188h-6.61v-19.971l-5.126 19.971h-5.984l-5.11-19.971v19.971h-6.626zm33.6 13.112q0-6.414 3.573-9.986t9.95-3.572q6.538 0 10.075 3.51t3.537 9.833q0 4.591-1.546 7.53-1.545 2.938-4.465 4.573-2.921 1.634-7.28 1.634-4.43 0-7.333-1.411t-4.706-4.466q-1.805-3.055-1.805-7.645m8.092.035q0 3.966 1.474 5.699 1.475 1.733 4.01 1.733 2.61 0 4.037-1.697 1.43-1.697 1.43-6.092 0-3.698-1.492-5.403-1.491-1.707-4.046-1.706-2.448 0-3.93 1.732-1.482 1.734-1.483 5.734m83.743-13.147h22.901v5.234l-14.684 15.327h15.219v5.627H87.97v-5.431l14.523-15.166H89.381zm27.402 0h8.11v26.188h-8.11zm13.826 0h10.647l4.108 15.934 4.091-15.934h10.611v26.188h-6.61v-19.971l-5.126 19.971h-5.985l-5.109-19.971v19.971h-6.627zm33.601 13.112q0-6.414 3.573-9.986t9.949-3.572q6.538 0 10.075 3.51t3.537 9.833q0 4.591-1.545 7.53t-4.466 4.573q-2.92 1.634-7.279 1.634-4.43 0-7.333-1.411t-4.707-4.466-1.804-7.645m8.092.035q0 3.966 1.474 5.699t4.01 1.733q2.608 0 4.037-1.697 1.43-1.697 1.429-6.092 0-3.698-1.492-5.403-1.491-1.707-4.046-1.706-2.447 0-3.929 1.732-1.483 1.734-1.483 5.734m83.743-13.147h22.9v5.234l-14.683 15.327h15.219v5.627h-24.848v-5.431l14.523-15.166h-13.111zm27.402 0h8.11v26.188h-8.11zm13.826 0h10.646l4.109 15.934 4.09-15.934h10.611v26.188h-6.609v-19.971l-5.127 19.971h-5.984l-5.109-19.971v19.971h-6.627zm33.6 13.112q0-6.414 3.573-9.986t9.95-3.572q6.538 0 10.075 3.51t3.537 9.833q0 4.591-1.546 7.53-1.545 2.938-4.465 4.573-2.92 1.634-7.28 1.634-4.43 0-7.332-1.411-2.904-1.411-4.707-4.466-1.805-3.055-1.805-7.645m8.092.035q0 3.966 1.474 5.699t4.01 1.733q2.609 0 4.037-1.697 1.43-1.697 1.43-6.092 0-3.698-1.492-5.403-1.491-1.707-4.046-1.706-2.448 0-3.93 1.732-1.482 1.734-1.483 5.734m83.743-13.147h22.901v5.234l-14.684 15.327h15.22v5.627h-24.848v-5.431l14.523-15.166h-13.112zm27.402 0h8.11v26.188h-8.11zm13.826 0h10.647l4.108 15.934 4.091-15.934h10.611v26.188h-6.61v-19.971l-5.126 19.971h-5.985l-5.109-19.971v19.971h-6.627zm33.601 13.112q0-6.414 3.573-9.986t9.949-3.572q6.538 0 10.075 3.51t3.537 9.833q0 4.591-1.545 7.53t-4.466 4.573q-2.92 1.634-7.279 1.634-4.43 0-7.333-1.411t-4.707-4.466-1.804-7.645m8.092.035q0 3.966 1.474 5.699t4.01 1.733q2.608 0 4.037-1.697 1.43-1.697 1.429-6.092 0-3.698-1.492-5.403-1.491-1.707-4.046-1.706-2.447 0-3.929 1.732-1.483 1.734-1.483 5.734m83.743-13.147h22.9v5.234l-14.683 15.327h15.219v5.627H587.96v-5.431l14.523-15.166h-13.111zm27.402 0h8.11v26.188h-8.11zm13.826 0h10.646l4.109 15.934 4.09-15.934h10.611v26.188h-6.609v-19.971l-5.127 19.971h-5.984l-5.109-19.971v19.971H630.6zm33.6 13.112q0-6.414 3.573-9.986t9.95-3.572q6.537 0 10.075 3.51t3.537 9.833q0 4.591-1.546 7.53-1.545 2.938-4.465 4.573-2.92 1.634-7.28 1.634-4.43 0-7.332-1.411-2.904-1.411-4.707-4.466-1.805-3.055-1.805-7.645m8.092.035q0 3.966 1.474 5.699t4.01 1.733q2.608 0 4.038-1.697 1.428-1.697 1.429-6.092 0-3.698-1.492-5.403-1.491-1.707-4.046-1.706-2.447 0-3.93 1.732-1.483 1.734-1.483 5.734m83.743-13.147h22.901v5.234l-14.684 15.327h15.22v5.627h-24.848v-5.431l14.523-15.166h-13.112zm27.402 0h8.11v26.188h-8.11zm13.826 0h10.647l4.108 15.934 4.091-15.934h10.611v26.188h-6.61v-19.971l-5.126 19.971h-5.985l-5.108-19.971v19.971h-6.628zm33.601 13.112q0-6.414 3.573-9.986t9.949-3.572q6.538 0 10.075 3.51t3.537 9.833q0 4.591-1.545 7.53t-4.466 4.573q-2.92 1.634-7.279 1.634-4.43 0-7.333-1.411-2.902-1.411-4.707-4.466t-1.804-7.645m8.092.035q0 3.966 1.474 5.699t4.01 1.733q2.608 0 4.037-1.697 1.43-1.697 1.429-6.092 0-3.698-1.491-5.403-1.492-1.707-4.047-1.706-2.447 0-3.929 1.732-1.483 1.734-1.483 5.734m83.743-13.147h22.9v5.234l-14.683 15.327h15.219v5.627h-24.848v-5.431l14.523-15.166h-13.111zm27.402 0h8.11v26.188h-8.11zm13.826 0h10.646l4.109 15.934 4.09-15.934h10.611v26.188h-6.609v-19.971l-5.127 19.971h-5.984l-5.109-19.971v19.971h-6.627zm33.6 13.112q0-6.414 3.573-9.986c2.38-2.382 5.7-3.572 9.95-3.572 4.36 0 7.72 1.17 10.07 3.51q3.54 3.51 3.54 9.833c0 3.061-.51 5.571-1.54 7.53q-1.545 2.938-4.47 4.573c-1.95 1.089-4.37 1.634-7.28 1.634-2.95 0-5.4-.47-7.33-1.411q-2.91-1.411-4.708-4.466-1.805-3.055-1.805-7.645m8.093.035q0 3.966 1.47 5.699c.99 1.155 2.32 1.733 4.01 1.733 1.74 0 3.09-.566 4.04-1.697s1.43-3.162 1.43-6.092c0-2.465-.5-4.266-1.49-5.403q-1.5-1.707-4.05-1.706-2.445 0-3.93 1.732c-.99 1.156-1.48 3.067-1.48 5.734"/><path fill="url(#e)" d="M-156.165 285.699h22.9v5.234l-14.683 15.327h15.219v5.627h-24.847v-5.431l14.522-15.165h-13.111zm27.402 0h8.11v26.188h-8.11zm13.826 0h10.646l4.109 15.934 4.09-15.934h10.611v26.188h-6.609v-19.971l-5.127 19.971h-5.984l-5.109-19.971v19.971h-6.627zm33.601 13.112q0-6.413 3.572-9.986 3.573-3.572 9.95-3.572 6.538 0 10.075 3.51t3.537 9.834q0 4.59-1.545 7.529-1.546 2.938-4.466 4.573-2.92 1.634-7.28 1.634-4.43 0-7.332-1.411t-4.707-4.466q-1.804-3.054-1.804-7.645m8.092.036q0 3.965 1.473 5.698 1.475 1.733 4.01 1.733 2.61 0 4.038-1.697t1.429-6.092q0-3.697-1.492-5.403t-4.046-1.706q-2.447 0-3.93 1.733-1.482 1.732-1.482 5.734m83.742-13.148h22.9v5.234L18.716 306.26h15.22v5.627H9.087v-5.431l14.523-15.165H10.498zm27.402 0h8.11v26.188H37.9zm13.827 0h10.646l4.108 15.934 4.091-15.934h10.61v26.188h-6.609v-19.971l-5.126 19.971h-5.984l-5.11-19.971v19.971h-6.627zm33.6 13.112q0-6.413 3.573-9.986 3.572-3.572 9.95-3.572 6.537 0 10.074 3.51t3.537 9.834q0 4.59-1.545 7.529t-4.466 4.573-7.279 1.634q-4.43 0-7.333-1.411t-4.707-4.466q-1.804-3.054-1.804-7.645m8.092.036q0 3.965 1.474 5.698t4.01 1.733q2.609 0 4.037-1.697 1.43-1.697 1.429-6.092 0-3.697-1.491-5.403t-4.046-1.706q-2.448 0-3.93 1.733-1.483 1.732-1.483 5.734m83.743-13.148h22.9v5.234l-14.683 15.327h15.219v5.627h-24.847v-5.431l14.522-15.165h-13.111zm27.402 0h8.11v26.188h-8.11zm13.826 0h10.646l4.109 15.934 4.091-15.934h10.61v26.188h-6.609v-19.971l-5.127 19.971h-5.984l-5.109-19.971v19.971h-6.627zm33.601 13.112q0-6.413 3.572-9.986 3.573-3.572 9.95-3.572 6.538 0 10.075 3.51t3.537 9.834q0 4.59-1.545 7.529t-4.466 4.573-7.279 1.634q-4.43 0-7.333-1.411t-4.707-4.466q-1.804-3.054-1.804-7.645m8.092.036q0 3.965 1.473 5.698 1.475 1.733 4.011 1.733 2.607 0 4.037-1.697 1.428-1.697 1.429-6.092 0-3.697-1.492-5.403t-4.046-1.706q-2.447 0-3.93 1.733-1.482 1.732-1.482 5.734m83.742-13.148h22.901v5.234l-14.684 15.327h15.22v5.627h-24.848v-5.431l14.523-15.165h-13.112zm27.402 0h8.11v26.188h-8.11zm13.827 0H395.7l4.109 15.934 4.09-15.934h10.611v26.188h-6.609v-19.971l-5.127 19.971h-5.984l-5.109-19.971v19.971h-6.627zm33.6 13.112q0-6.413 3.573-9.986 3.573-3.572 9.95-3.572 6.538 0 10.074 3.51 3.537 3.51 3.537 9.834 0 4.59-1.545 7.529t-4.466 4.573-7.279 1.634q-4.43 0-7.333-1.411t-4.707-4.466q-1.803-3.054-1.804-7.645m8.092.036q0 3.965 1.474 5.698t4.01 1.733q2.609 0 4.037-1.697 1.43-1.697 1.429-6.092 0-3.697-1.491-5.403t-4.046-1.706q-2.448 0-3.93 1.733-1.483 1.732-1.483 5.734m83.743-13.148h22.9v5.234l-14.683 15.327h15.219v5.627h-24.847v-5.431l14.522-15.165h-13.111zm27.402 0h8.11v26.188h-8.11zm13.826 0h10.647l4.108 15.934 4.091-15.934h10.61v26.188h-6.609v-19.971l-5.127 19.971h-5.984l-5.109-19.971v19.971h-6.627zm33.601 13.112q0-6.413 3.572-9.986 3.573-3.572 9.95-3.572 6.538 0 10.075 3.51t3.537 9.834q0 4.59-1.545 7.529t-4.466 4.573-7.279 1.634q-4.43 0-7.333-1.411-2.902-1.411-4.707-4.466-1.804-3.054-1.804-7.645m8.092.036q0 3.965 1.473 5.698 1.475 1.733 4.011 1.733 2.607 0 4.037-1.697t1.429-6.092q0-3.697-1.492-5.403t-4.046-1.706q-2.446 0-3.93 1.733-1.482 1.732-1.482 5.734m83.742-13.148h22.901v5.234l-14.684 15.327h15.22v5.627h-24.848v-5.431l14.523-15.165h-13.112zm27.402 0h8.11v26.188h-8.11zm13.827 0h10.646l4.109 15.934 4.09-15.934h10.611v26.188h-6.609v-19.971l-5.127 19.971h-5.984l-5.109-19.971v19.971h-6.627zm33.6 13.112q0-6.413 3.573-9.986 3.572-3.572 9.95-3.572 6.538 0 10.074 3.51 3.537 3.51 3.537 9.834 0 4.59-1.545 7.529t-4.466 4.573q-2.92 1.634-7.279 1.634-4.43 0-7.333-1.411t-4.707-4.466q-1.803-3.054-1.804-7.645m8.092.036q0 3.965 1.474 5.698t4.01 1.733q2.609 0 4.037-1.697 1.43-1.697 1.429-6.092 0-3.697-1.491-5.403t-4.046-1.706q-2.448 0-3.93 1.733-1.483 1.732-1.483 5.734m83.743-13.148h22.9v5.234l-14.683 15.327h15.219v5.627h-24.847v-5.431l14.522-15.165h-13.111zm27.402 0h8.11v26.188h-8.11zm13.826 0h10.647l4.108 15.934 4.091-15.934h10.61v26.188h-6.609v-19.971l-5.127 19.971h-5.984l-5.109-19.971v19.971h-6.627zm33.601 13.112q0-6.413 3.572-9.986 3.573-3.572 9.95-3.572 6.538 0 10.075 3.51t3.537 9.834q0 4.59-1.545 7.529t-4.466 4.573-7.279 1.634q-4.43 0-7.333-1.411t-4.707-4.466q-1.804-3.054-1.804-7.645m8.092.036q0 3.965 1.473 5.698t4.011 1.733q2.607 0 4.037-1.697t1.429-6.092q0-3.697-1.492-5.403t-4.046-1.706q-2.447 0-3.93 1.733-1.482 1.732-1.482 5.734m83.743-13.148h22.9v5.234l-14.68 15.327h15.22v5.627h-24.85v-5.431l14.52-15.165h-13.11zm27.4 0h8.11v26.188h-8.11zm13.83 0h10.64l4.11 15.934 4.09-15.934h10.61v26.188h-6.61v-19.971l-5.12 19.971h-5.99l-5.11-19.971v19.971h-6.62zm33.6 13.112q0-6.413 3.57-9.986c2.38-2.381 5.7-3.572 9.95-3.572q6.54 0 10.08 3.51c2.35 2.34 3.53 5.618 3.53 9.834 0 3.06-.51 5.57-1.54 7.529q-1.545 2.938-4.47 4.573c-1.95 1.09-4.37 1.634-7.28 1.634-2.95 0-5.4-.47-7.33-1.411-1.94-.941-3.5-2.429-4.71-4.466q-1.8-3.054-1.8-7.645m8.09.036q0 3.965 1.47 5.698c.99 1.155 2.32 1.733 4.01 1.733 1.74 0 3.09-.566 4.04-1.697s1.43-3.162 1.43-6.092c0-2.465-.5-4.266-1.49-5.403-1-1.137-2.34-1.706-4.05-1.706q-2.445 0-3.93 1.733c-.99 1.155-1.48 3.066-1.48 5.734"/><path fill="url(#f)" d="M-77.282 370.46h22.9v5.234l-14.684 15.327h15.22v5.627h-24.848v-5.431l14.523-15.165h-13.111zm27.402 0h8.11v26.188h-8.11zm13.826 0h10.646l4.109 15.934 4.09-15.934h10.611v26.188h-6.61v-19.971l-5.126 19.971h-5.984l-5.11-19.971v19.971h-6.626zm33.6 13.112q0-6.413 3.573-9.986 3.573-3.572 9.95-3.572 6.538 0 10.075 3.51t3.537 9.834q0 4.59-1.546 7.529-1.545 2.938-4.465 4.573-2.921 1.634-7.28 1.634-4.43 0-7.333-1.411t-4.706-4.466q-1.805-3.055-1.805-7.645m8.092.036q0 3.965 1.474 5.698 1.475 1.733 4.01 1.733 2.61 0 4.037-1.697 1.43-1.697 1.43-6.092 0-3.697-1.492-5.403-1.491-1.707-4.046-1.706-2.448 0-3.93 1.733-1.482 1.732-1.483 5.734m83.743-13.148h22.901v5.234l-14.684 15.327h15.219v5.627H87.97v-5.431l14.523-15.165H89.381zm27.402 0h8.11v26.188h-8.11zm13.826 0h10.647l4.108 15.934 4.091-15.934h10.611v26.188h-6.61v-19.971l-5.126 19.971h-5.985l-5.109-19.971v19.971h-6.627zm33.601 13.112q0-6.413 3.573-9.986 3.572-3.572 9.949-3.572 6.538 0 10.075 3.51t3.537 9.834q0 4.59-1.545 7.529t-4.466 4.573q-2.92 1.634-7.279 1.634-4.43 0-7.333-1.411t-4.707-4.466-1.804-7.645m8.092.036q0 3.965 1.474 5.698t4.01 1.733q2.608 0 4.037-1.697 1.43-1.697 1.429-6.092 0-3.697-1.492-5.403-1.491-1.707-4.046-1.706-2.447 0-3.929 1.733-1.483 1.732-1.483 5.734m83.743-13.148h22.9v5.234l-14.683 15.327h15.219v5.627h-24.848v-5.431l14.523-15.165h-13.111zm27.402 0h8.11v26.188h-8.11zm13.826 0h10.646l4.109 15.934 4.09-15.934h10.611v26.188h-6.609v-19.971l-5.127 19.971h-5.984l-5.109-19.971v19.971h-6.627zm33.6 13.112q0-6.413 3.573-9.986 3.572-3.572 9.95-3.572 6.538 0 10.075 3.51t3.537 9.834q0 4.59-1.546 7.529-1.545 2.938-4.465 4.573-2.92 1.634-7.28 1.634-4.43 0-7.332-1.411-2.904-1.411-4.707-4.466-1.805-3.055-1.805-7.645m8.092.036q0 3.965 1.474 5.698t4.01 1.733q2.609 0 4.037-1.697 1.43-1.697 1.43-6.092 0-3.697-1.492-5.403-1.491-1.707-4.046-1.706-2.448 0-3.93 1.733-1.482 1.732-1.483 5.734m83.743-13.148h22.901v5.234l-14.684 15.327h15.22v5.627h-24.848v-5.431l14.523-15.165h-13.112zm27.402 0h8.11v26.188h-8.11zm13.826 0h10.647l4.108 15.934 4.091-15.934h10.611v26.188h-6.61v-19.971l-5.126 19.971h-5.985l-5.109-19.971v19.971h-6.627zm33.601 13.112q0-6.413 3.573-9.986 3.572-3.572 9.949-3.572 6.538 0 10.075 3.51t3.537 9.834q0 4.59-1.545 7.529t-4.466 4.573q-2.92 1.634-7.279 1.634-4.43 0-7.333-1.411t-4.707-4.466-1.804-7.645m8.092.036q0 3.965 1.474 5.698t4.01 1.733q2.608 0 4.037-1.697 1.43-1.697 1.429-6.092 0-3.697-1.492-5.403-1.491-1.707-4.046-1.706-2.447 0-3.929 1.733-1.483 1.732-1.483 5.734m83.743-13.148h22.9v5.234l-14.683 15.327h15.219v5.627H587.96v-5.431l14.523-15.165h-13.111zm27.402 0h8.11v26.188h-8.11zm13.826 0h10.646l4.109 15.934 4.09-15.934h10.611v26.188h-6.609v-19.971l-5.127 19.971h-5.984l-5.109-19.971v19.971H630.6zm33.6 13.112q0-6.413 3.573-9.986 3.572-3.572 9.95-3.572 6.537 0 10.075 3.51t3.537 9.834q0 4.59-1.546 7.529-1.545 2.938-4.465 4.573-2.92 1.634-7.28 1.634-4.43 0-7.332-1.411-2.904-1.411-4.707-4.466-1.805-3.055-1.805-7.645m8.092.036q0 3.965 1.474 5.698t4.01 1.733q2.608 0 4.038-1.697 1.428-1.697 1.429-6.092 0-3.697-1.492-5.403-1.491-1.707-4.046-1.706-2.447 0-3.93 1.733-1.483 1.732-1.483 5.734m83.743-13.148h22.901v5.234l-14.684 15.327h15.22v5.627h-24.848v-5.431l14.523-15.165h-13.112zm27.402 0h8.11v26.188h-8.11zm13.826 0h10.647l4.108 15.934 4.091-15.934h10.611v26.188h-6.61v-19.971l-5.126 19.971h-5.985l-5.108-19.971v19.971h-6.628zm33.601 13.112q0-6.413 3.573-9.986 3.572-3.572 9.949-3.572 6.538 0 10.075 3.51t3.537 9.834q0 4.59-1.545 7.529t-4.466 4.573q-2.92 1.634-7.279 1.634-4.43 0-7.333-1.411-2.902-1.411-4.707-4.466t-1.804-7.645m8.092.036q0 3.965 1.474 5.698t4.01 1.733q2.608 0 4.037-1.697 1.43-1.697 1.429-6.092 0-3.697-1.491-5.403-1.492-1.707-4.047-1.706-2.447 0-3.929 1.733-1.483 1.732-1.483 5.734m83.743-13.148h22.9v5.234l-14.683 15.327h15.219v5.627h-24.848v-5.431l14.523-15.165h-13.111zm27.402 0h8.11v26.188h-8.11zm13.826 0h10.646l4.109 15.934 4.09-15.934h10.611v26.188h-6.609v-19.971l-5.127 19.971h-5.984l-5.109-19.971v19.971h-6.627zm33.6 13.112q0-6.413 3.573-9.986c2.38-2.381 5.7-3.572 9.95-3.572 4.36 0 7.72 1.17 10.07 3.51q3.54 3.51 3.54 9.834c0 3.06-.51 5.57-1.54 7.529q-1.545 2.938-4.47 4.573c-1.95 1.09-4.37 1.634-7.28 1.634-2.95 0-5.4-.47-7.33-1.411q-2.91-1.411-4.708-4.466-1.805-3.055-1.805-7.645m8.093.036q0 3.965 1.47 5.698c.99 1.155 2.32 1.733 4.01 1.733 1.74 0 3.09-.566 4.04-1.697s1.43-3.162 1.43-6.092c0-2.465-.5-4.266-1.49-5.403q-1.5-1.707-4.05-1.706-2.445 0-3.93 1.733c-.99 1.155-1.48 3.066-1.48 5.734"/><path fill="url(#g)" d="M-156.165 455.198h22.9v5.234l-14.683 15.326h15.219v5.627h-24.847v-5.43l14.522-15.166h-13.111zm27.402 0h8.11v26.187h-8.11zm13.826 0h10.646l4.109 15.934 4.09-15.934h10.611v26.187h-6.609v-19.971l-5.127 19.971h-5.984l-5.109-19.971v19.971h-6.627zm33.601 13.111q0-6.413 3.572-9.985 3.573-3.573 9.95-3.573 6.538 0 10.075 3.51t3.537 9.834q0 4.59-1.545 7.529-1.546 2.938-4.466 4.573t-7.28 1.635q-4.43 0-7.332-1.412-2.903-1.41-4.707-4.465t-1.804-7.646m8.092.036q0 3.966 1.473 5.698 1.475 1.733 4.01 1.733 2.61 0 4.038-1.697t1.429-6.091q0-3.698-1.492-5.404t-4.046-1.706q-2.447 0-3.93 1.733-1.482 1.732-1.482 5.734m83.742-13.147h22.9v5.234l-14.683 15.326h15.22v5.627H9.087v-5.43l14.523-15.166H10.498zm27.402 0h8.11v26.187H37.9zm13.827 0h10.646l4.108 15.934 4.091-15.934h10.61v26.187h-6.609v-19.971l-5.126 19.971h-5.984l-5.11-19.971v19.971h-6.627zm33.6 13.111q0-6.413 3.573-9.985 3.572-3.573 9.95-3.573 6.537 0 10.074 3.51t3.537 9.834q0 4.59-1.545 7.529t-4.466 4.573q-2.92 1.635-7.279 1.635-4.43 0-7.333-1.412-2.903-1.41-4.707-4.465t-1.804-7.646m8.092.036q0 3.966 1.474 5.698t4.01 1.733q2.609 0 4.037-1.697 1.43-1.697 1.429-6.091 0-3.698-1.491-5.404t-4.046-1.706q-2.448 0-3.93 1.733-1.483 1.732-1.483 5.734m83.743-13.147h22.9v5.234l-14.683 15.326h15.219v5.627h-24.847v-5.43l14.522-15.166h-13.111zm27.402 0h8.11v26.187h-8.11zm13.826 0h10.646l4.109 15.934 4.091-15.934h10.61v26.187h-6.609v-19.971l-5.127 19.971h-5.984l-5.109-19.971v19.971h-6.627zm33.601 13.111q0-6.413 3.572-9.985 3.573-3.573 9.95-3.573 6.538 0 10.075 3.51t3.537 9.834q0 4.59-1.545 7.529t-4.466 4.573q-2.921 1.635-7.279 1.635-4.43 0-7.333-1.412-2.903-1.41-4.707-4.465t-1.804-7.646m8.092.036q0 3.966 1.473 5.698 1.475 1.733 4.011 1.733 2.607 0 4.037-1.697 1.428-1.697 1.429-6.091 0-3.698-1.492-5.404t-4.046-1.706q-2.447 0-3.93 1.733-1.482 1.732-1.482 5.734m83.742-13.147h22.901v5.234l-14.684 15.326h15.22v5.627h-24.848v-5.43l14.523-15.166h-13.112zm27.402 0h8.11v26.187h-8.11zm13.827 0H395.7l4.109 15.934 4.09-15.934h10.611v26.187h-6.609v-19.971l-5.127 19.971h-5.984l-5.109-19.971v19.971h-6.627zm33.6 13.111q0-6.413 3.573-9.985 3.573-3.573 9.95-3.573 6.538 0 10.074 3.51 3.537 3.51 3.537 9.834 0 4.59-1.545 7.529t-4.466 4.573q-2.92 1.635-7.279 1.635-4.43 0-7.333-1.412-2.903-1.41-4.707-4.465t-1.804-7.646m8.092.036q0 3.966 1.474 5.698t4.01 1.733q2.609 0 4.037-1.697 1.43-1.697 1.429-6.091 0-3.698-1.491-5.404t-4.046-1.706q-2.448 0-3.93 1.733-1.483 1.732-1.483 5.734m83.743-13.147h22.9v5.234l-14.683 15.326h15.219v5.627h-24.847v-5.43l14.522-15.166h-13.111zm27.402 0h8.11v26.187h-8.11zm13.826 0h10.647l4.108 15.934 4.091-15.934h10.61v26.187h-6.609v-19.971l-5.127 19.971h-5.984l-5.109-19.971v19.971h-6.627zm33.601 13.111q0-6.413 3.572-9.985 3.573-3.573 9.95-3.573 6.538 0 10.075 3.51t3.537 9.834q0 4.59-1.545 7.529t-4.466 4.573q-2.921 1.635-7.279 1.635-4.43 0-7.333-1.412-2.902-1.41-4.707-4.465t-1.804-7.646m8.092.036q0 3.966 1.473 5.698 1.475 1.733 4.011 1.733 2.607 0 4.037-1.697t1.429-6.091q0-3.698-1.492-5.404t-4.046-1.706q-2.446 0-3.93 1.733-1.482 1.732-1.482 5.734m83.742-13.147h22.901v5.234l-14.684 15.326h15.22v5.627h-24.848v-5.43l14.523-15.166h-13.112zm27.402 0h8.11v26.187h-8.11zm13.827 0h10.646l4.109 15.934 4.09-15.934h10.611v26.187h-6.609v-19.971l-5.127 19.971h-5.984l-5.109-19.971v19.971h-6.627zm33.6 13.111q0-6.413 3.573-9.985 3.572-3.573 9.95-3.573 6.538 0 10.074 3.51 3.537 3.51 3.537 9.834 0 4.59-1.545 7.529t-4.466 4.573q-2.92 1.635-7.279 1.635-4.43 0-7.333-1.412-2.903-1.41-4.707-4.465t-1.804-7.646m8.092.036q0 3.966 1.474 5.698t4.01 1.733q2.609 0 4.037-1.697 1.43-1.697 1.429-6.091 0-3.698-1.491-5.404t-4.046-1.706q-2.448 0-3.93 1.733-1.483 1.732-1.483 5.734m83.743-13.147h22.9v5.234l-14.683 15.326h15.219v5.627h-24.847v-5.43l14.522-15.166h-13.111zm27.402 0h8.11v26.187h-8.11zm13.826 0h10.647l4.108 15.934 4.091-15.934h10.61v26.187h-6.609v-19.971l-5.127 19.971h-5.984l-5.109-19.971v19.971h-6.627zm33.601 13.111q0-6.413 3.572-9.985 3.573-3.573 9.95-3.573 6.538 0 10.075 3.51t3.537 9.834q0 4.59-1.545 7.529t-4.466 4.573q-2.921 1.635-7.279 1.635-4.43 0-7.333-1.412-2.903-1.41-4.707-4.465t-1.804-7.646m8.092.036q0 3.966 1.473 5.698t4.011 1.733q2.607 0 4.037-1.697t1.429-6.091q0-3.698-1.492-5.404t-4.046-1.706q-2.447 0-3.93 1.733-1.482 1.732-1.482 5.734m83.743-13.147h22.9v5.234l-14.68 15.326h15.22v5.627h-24.85v-5.43l14.52-15.166h-13.11zm27.4 0h8.11v26.187h-8.11zm13.83 0h10.64l4.11 15.934 4.09-15.934h10.61v26.187h-6.61v-19.971l-5.12 19.971h-5.99l-5.11-19.971v19.971h-6.62zm33.6 13.111q0-6.413 3.57-9.985c2.38-2.382 5.7-3.573 9.95-3.573q6.54 0 10.08 3.51c2.35 2.34 3.53 5.618 3.53 9.834 0 3.06-.51 5.57-1.54 7.529q-1.545 2.938-4.47 4.573c-1.95 1.09-4.37 1.635-7.28 1.635-2.95 0-5.4-.471-7.33-1.412-1.94-.94-3.5-2.429-4.71-4.465q-1.8-3.055-1.8-7.646m8.09.036q0 3.966 1.47 5.698c.99 1.155 2.32 1.733 4.01 1.733 1.74 0 3.09-.566 4.04-1.697s1.43-3.162 1.43-6.091c0-2.465-.5-4.267-1.49-5.404-1-1.137-2.34-1.706-4.05-1.706q-2.445 0-3.93 1.733c-.99 1.155-1.48 3.066-1.48 5.734"/><path fill="url(#h)" d="M-77.282 542.591h22.9v5.234l-14.684 15.327h15.22v5.627h-24.848v-5.431l14.523-15.166h-13.111zm27.402 0h8.11v26.188h-8.11zm13.826 0h10.646l4.109 15.934 4.09-15.934h10.611v26.188h-6.61v-19.971l-5.126 19.971h-5.984l-5.11-19.971v19.971h-6.626zm33.6 13.112q0-6.413 3.573-9.986 3.573-3.572 9.95-3.572 6.538 0 10.075 3.51t3.537 9.833q0 4.592-1.546 7.53-1.545 2.938-4.465 4.573-2.921 1.634-7.28 1.634-4.43 0-7.333-1.411t-4.706-4.466q-1.805-3.054-1.805-7.645m8.092.035q0 3.966 1.474 5.699 1.475 1.733 4.01 1.733 2.61 0 4.037-1.697 1.43-1.697 1.43-6.092 0-3.697-1.492-5.403-1.491-1.707-4.046-1.706-2.448 0-3.93 1.732-1.482 1.734-1.483 5.734m83.743-13.147h22.901v5.234l-14.684 15.327h15.219v5.627H87.97v-5.431l14.523-15.166H89.381zm27.402 0h8.11v26.188h-8.11zm13.826 0h10.647l4.108 15.934 4.091-15.934h10.611v26.188h-6.61v-19.971l-5.126 19.971h-5.985l-5.109-19.971v19.971h-6.627zm33.601 13.112q0-6.413 3.573-9.986 3.572-3.572 9.949-3.572 6.538 0 10.075 3.51t3.537 9.833q0 4.591-1.545 7.53t-4.466 4.573q-2.92 1.634-7.279 1.634-4.43 0-7.333-1.411t-4.707-4.466-1.804-7.645m8.092.035q0 3.966 1.474 5.699t4.01 1.733q2.608 0 4.037-1.697 1.43-1.697 1.429-6.092 0-3.697-1.492-5.403-1.491-1.707-4.046-1.706-2.447 0-3.929 1.732-1.483 1.734-1.483 5.734m83.743-13.147h22.9v5.234l-14.683 15.327h15.219v5.627h-24.848v-5.431l14.523-15.166h-13.111zm27.402 0h8.11v26.188h-8.11zm13.826 0h10.646l4.109 15.934 4.09-15.934h10.611v26.188h-6.609v-19.971l-5.127 19.971h-5.984l-5.109-19.971v19.971h-6.627zm33.6 13.112q0-6.413 3.573-9.986 3.572-3.572 9.95-3.572 6.538 0 10.075 3.51t3.537 9.833q0 4.592-1.546 7.53-1.545 2.938-4.465 4.573-2.92 1.634-7.28 1.634-4.43 0-7.332-1.411-2.904-1.411-4.707-4.466-1.805-3.054-1.805-7.645m8.092.035q0 3.966 1.474 5.699t4.01 1.733q2.609 0 4.037-1.697 1.43-1.698 1.43-6.092 0-3.697-1.492-5.403-1.491-1.707-4.046-1.706-2.448 0-3.93 1.732-1.482 1.734-1.483 5.734m83.743-13.147h22.901v5.234l-14.684 15.327h15.22v5.627h-24.848v-5.431l14.523-15.166h-13.112zm27.402 0h8.11v26.188h-8.11zm13.826 0h10.647l4.108 15.934 4.091-15.934h10.611v26.188h-6.61v-19.971l-5.126 19.971h-5.985l-5.109-19.971v19.971h-6.627zm33.601 13.112q0-6.413 3.573-9.986 3.572-3.572 9.949-3.572 6.538 0 10.075 3.51t3.537 9.833q0 4.591-1.545 7.53t-4.466 4.573q-2.92 1.634-7.279 1.634-4.43 0-7.333-1.411t-4.707-4.466q-1.804-3.054-1.804-7.645m8.092.035q0 3.966 1.474 5.699t4.01 1.733q2.608 0 4.037-1.697 1.43-1.697 1.429-6.092 0-3.697-1.492-5.403-1.491-1.707-4.046-1.706-2.447 0-3.929 1.732-1.483 1.734-1.483 5.734m83.743-13.147h22.9v5.234l-14.683 15.327h15.219v5.627H587.96v-5.431l14.523-15.166h-13.111zm27.402 0h8.11v26.188h-8.11zm13.826 0h10.646l4.109 15.934 4.09-15.934h10.611v26.188h-6.609v-19.971l-5.127 19.971h-5.984l-5.109-19.971v19.971H630.6zm33.6 13.112q0-6.413 3.573-9.986 3.572-3.572 9.95-3.572 6.537 0 10.075 3.51t3.537 9.833q0 4.592-1.546 7.53-1.545 2.938-4.465 4.573-2.92 1.634-7.28 1.634-4.43 0-7.332-1.411-2.904-1.411-4.707-4.466-1.805-3.054-1.805-7.645m8.092.035q0 3.966 1.474 5.699t4.01 1.733q2.608 0 4.038-1.697 1.428-1.697 1.429-6.092 0-3.697-1.492-5.403-1.491-1.707-4.046-1.706-2.447 0-3.93 1.732-1.483 1.734-1.483 5.734m83.743-13.147h22.901v5.234l-14.684 15.327h15.22v5.627h-24.848v-5.431l14.523-15.166h-13.112zm27.402 0h8.11v26.188h-8.11zm13.826 0h10.647l4.108 15.934 4.091-15.934h10.611v26.188h-6.61v-19.971l-5.126 19.971h-5.985l-5.108-19.971v19.971h-6.628zm33.601 13.112q0-6.413 3.573-9.986 3.572-3.572 9.949-3.572 6.538 0 10.075 3.51t3.537 9.833q0 4.591-1.545 7.53t-4.466 4.573q-2.92 1.634-7.279 1.634-4.43 0-7.333-1.411-2.902-1.411-4.707-4.466t-1.804-7.645m8.092.035q0 3.966 1.474 5.699t4.01 1.733q2.608 0 4.037-1.697 1.43-1.697 1.429-6.092 0-3.697-1.491-5.403-1.492-1.707-4.047-1.706-2.447 0-3.929 1.732-1.483 1.734-1.483 5.734m83.743-13.147h22.9v5.234l-14.683 15.327h15.219v5.627h-24.848v-5.431l14.523-15.166h-13.111zm27.402 0h8.11v26.188h-8.11zm13.826 0h10.646l4.109 15.934 4.09-15.934h10.611v26.188h-6.609v-19.971l-5.127 19.971h-5.984l-5.109-19.971v19.971h-6.627zm33.6 13.112q0-6.413 3.573-9.986c2.38-2.382 5.7-3.572 9.95-3.572 4.36 0 7.72 1.17 10.07 3.51q3.54 3.51 3.54 9.833c0 3.061-.51 5.571-1.54 7.53q-1.545 2.938-4.47 4.573c-1.95 1.089-4.37 1.634-7.28 1.634-2.95 0-5.4-.47-7.33-1.411q-2.91-1.411-4.708-4.466-1.805-3.054-1.805-7.645m8.093.035q0 3.966 1.47 5.699c.99 1.155 2.32 1.733 4.01 1.733 1.74 0 3.09-.566 4.04-1.697s1.43-3.162 1.43-6.092c0-2.465-.5-4.266-1.49-5.403q-1.5-1.707-4.05-1.706-2.445 0-3.93 1.732c-.99 1.156-1.48 3.067-1.48 5.734"/><path fill="url(#i)" d="M-156.165 627.328h22.9v5.234l-14.683 15.327h15.219v5.627h-24.847v-5.431l14.522-15.165h-13.111zm27.402 0h8.11v26.188h-8.11zm13.826 0h10.646l4.109 15.934 4.09-15.934h10.611v26.188h-6.609v-19.971l-5.127 19.971h-5.984l-5.109-19.971v19.971h-6.627zm33.601 13.112q0-6.413 3.572-9.986 3.573-3.572 9.95-3.572 6.538 0 10.075 3.51t3.537 9.834q0 4.59-1.545 7.529-1.546 2.938-4.466 4.573t-7.28 1.634q-4.43 0-7.332-1.411t-4.707-4.466q-1.804-3.054-1.804-7.645m8.092.036q0 3.965 1.473 5.698 1.475 1.733 4.01 1.733 2.61 0 4.038-1.697t1.429-6.092q0-3.697-1.492-5.403t-4.046-1.706q-2.447 0-3.93 1.733-1.482 1.732-1.482 5.734m83.742-13.148h22.9v5.234l-14.683 15.327h15.22v5.627H9.087v-5.431L23.61 632.92H10.498zm27.402 0h8.11v26.188H37.9zm13.827 0h10.646l4.108 15.934 4.091-15.934h10.61v26.188h-6.609v-19.971l-5.126 19.971h-5.984l-5.11-19.971v19.971h-6.627zm33.6 13.112q0-6.413 3.573-9.986 3.572-3.572 9.95-3.572 6.537 0 10.074 3.51t3.537 9.834q0 4.59-1.545 7.529t-4.466 4.573-7.279 1.634q-4.43 0-7.333-1.411t-4.707-4.466q-1.804-3.054-1.804-7.645m8.092.036q0 3.965 1.474 5.698t4.01 1.733q2.609 0 4.037-1.697 1.43-1.698 1.429-6.092 0-3.697-1.491-5.403t-4.046-1.706q-2.448 0-3.93 1.733-1.483 1.732-1.483 5.734m83.743-13.148h22.9v5.234l-14.683 15.327h15.219v5.627h-24.847v-5.431l14.522-15.165h-13.111zm27.402 0h8.11v26.188h-8.11zm13.826 0h10.646l4.109 15.934 4.091-15.934h10.61v26.188h-6.609v-19.971l-5.127 19.971h-5.984l-5.109-19.971v19.971h-6.627zm33.601 13.112q0-6.413 3.572-9.986 3.573-3.572 9.95-3.572 6.538 0 10.075 3.51t3.537 9.834q0 4.59-1.545 7.529t-4.466 4.573-7.279 1.634q-4.43 0-7.333-1.411t-4.707-4.466q-1.804-3.054-1.804-7.645m8.092.036q0 3.965 1.473 5.698 1.475 1.733 4.011 1.733 2.607 0 4.037-1.697 1.428-1.697 1.429-6.092 0-3.697-1.492-5.403t-4.046-1.706q-2.447 0-3.93 1.733-1.482 1.732-1.482 5.734m83.742-13.148h22.901v5.234l-14.684 15.327h15.22v5.627h-24.848v-5.431l14.523-15.165h-13.112zm27.402 0h8.11v26.188h-8.11zm13.827 0H395.7l4.109 15.934 4.09-15.934h10.611v26.188h-6.609v-19.971l-5.127 19.971h-5.984l-5.109-19.971v19.971h-6.627zm33.6 13.112q0-6.413 3.573-9.986 3.573-3.572 9.95-3.572 6.538 0 10.074 3.51 3.537 3.51 3.537 9.834 0 4.59-1.545 7.529t-4.466 4.573-7.279 1.634q-4.43 0-7.333-1.411t-4.707-4.466q-1.803-3.054-1.804-7.645m8.092.036q0 3.965 1.474 5.698t4.01 1.733q2.609 0 4.037-1.697 1.43-1.697 1.429-6.092 0-3.697-1.491-5.403t-4.046-1.706q-2.448 0-3.93 1.733-1.483 1.732-1.483 5.734m83.743-13.148h22.9v5.234l-14.683 15.327h15.219v5.627h-24.847v-5.431L523.6 632.92h-13.111zm27.402 0h8.11v26.188h-8.11zm13.826 0h10.647l4.108 15.934 4.091-15.934h10.61v26.188h-6.609v-19.971l-5.127 19.971h-5.984l-5.109-19.971v19.971h-6.627zm33.601 13.112q0-6.413 3.572-9.986 3.573-3.572 9.95-3.572 6.538 0 10.075 3.51t3.537 9.834q0 4.59-1.545 7.529t-4.466 4.573-7.279 1.634q-4.43 0-7.333-1.411-2.902-1.411-4.707-4.466-1.804-3.054-1.804-7.645m8.092.036q0 3.965 1.473 5.698 1.475 1.733 4.011 1.733 2.607 0 4.037-1.697t1.429-6.092q0-3.697-1.492-5.403t-4.046-1.706q-2.446 0-3.93 1.733-1.482 1.732-1.482 5.734m83.742-13.148h22.901v5.234l-14.684 15.327h15.22v5.627h-24.848v-5.431l14.523-15.165h-13.112zm27.402 0h8.11v26.188h-8.11zm13.827 0h10.646l4.109 15.934 4.09-15.934h10.611v26.188h-6.609v-19.971l-5.127 19.971h-5.984l-5.109-19.971v19.971h-6.627zm33.6 13.112q0-6.413 3.573-9.986 3.572-3.572 9.95-3.572 6.538 0 10.074 3.51 3.537 3.51 3.537 9.834 0 4.59-1.545 7.529t-4.466 4.573q-2.92 1.635-7.279 1.634-4.43 0-7.333-1.411t-4.707-4.466q-1.803-3.054-1.804-7.645m8.092.036q0 3.965 1.474 5.698t4.01 1.733q2.609 0 4.037-1.697 1.43-1.698 1.429-6.092 0-3.697-1.491-5.403t-4.046-1.706q-2.448 0-3.93 1.733-1.483 1.732-1.483 5.734m83.743-13.148h22.9v5.234l-14.683 15.327h15.219v5.627h-24.847v-5.431l14.522-15.165h-13.111zm27.402 0h8.11v26.188h-8.11zm13.826 0h10.647l4.108 15.934 4.091-15.934h10.61v26.188h-6.609v-19.971l-5.127 19.971h-5.984l-5.109-19.971v19.971h-6.627zm33.601 13.112q0-6.413 3.572-9.986 3.573-3.572 9.95-3.572 6.538 0 10.075 3.51t3.537 9.834q0 4.59-1.545 7.529t-4.466 4.573-7.279 1.634q-4.43 0-7.333-1.411t-4.707-4.466q-1.804-3.054-1.804-7.645m8.092.036q0 3.965 1.473 5.698t4.011 1.733q2.607 0 4.037-1.697t1.429-6.092q0-3.697-1.492-5.403t-4.046-1.706q-2.447 0-3.93 1.733-1.482 1.732-1.482 5.734m83.743-13.148h22.9v5.234l-14.68 15.327h15.22v5.627h-24.85v-5.431l14.52-15.165h-13.11zm27.4 0h8.11v26.188h-8.11zm13.83 0h10.64l4.11 15.934 4.09-15.934h10.61v26.188h-6.61v-19.971l-5.12 19.971h-5.99l-5.11-19.971v19.971h-6.62zm33.6 13.112q0-6.413 3.57-9.986c2.38-2.381 5.7-3.572 9.95-3.572q6.54 0 10.08 3.51c2.35 2.34 3.53 5.618 3.53 9.834 0 3.06-.51 5.57-1.54 7.529q-1.545 2.938-4.47 4.573c-1.95 1.09-4.37 1.634-7.28 1.634-2.95 0-5.4-.47-7.33-1.411-1.94-.941-3.5-2.429-4.71-4.466q-1.8-3.054-1.8-7.645m8.09.036q0 3.965 1.47 5.698c.99 1.155 2.32 1.733 4.01 1.733 1.74 0 3.09-.566 4.04-1.697s1.43-3.162 1.43-6.092c0-2.465-.5-4.266-1.49-5.403-1-1.137-2.34-1.706-4.05-1.706q-2.445 0-3.93 1.733c-.99 1.155-1.48 3.066-1.48 5.734"/><path fill="url(#j)" d="M-77.282 712.369h22.9v5.234l-14.684 15.327h15.22v5.627h-24.848v-5.431l14.523-15.165h-13.111zm27.402 0h8.11v26.188h-8.11zm13.826 0h10.646l4.109 15.934 4.09-15.934h10.611v26.188h-6.61v-19.971l-5.126 19.971h-5.984l-5.11-19.971v19.971h-6.626zm33.6 13.112q0-6.413 3.573-9.986 3.573-3.572 9.95-3.572 6.538 0 10.075 3.51t3.537 9.834q0 4.59-1.546 7.529-1.545 2.938-4.465 4.573t-7.28 1.634q-4.43 0-7.333-1.411t-4.706-4.466q-1.805-3.054-1.805-7.645m8.092.036q0 3.965 1.474 5.698 1.475 1.733 4.01 1.733 2.61 0 4.037-1.697 1.43-1.697 1.43-6.092 0-3.697-1.492-5.403t-4.046-1.706q-2.448 0-3.93 1.733-1.482 1.732-1.483 5.734m83.743-13.148h22.901v5.234L97.598 732.93h15.219v5.627H87.97v-5.431l14.523-15.165H89.381zm27.402 0h8.11v26.188h-8.11zm13.826 0h10.647l4.108 15.934 4.091-15.934h10.611v26.188h-6.61v-19.971l-5.126 19.971h-5.985l-5.109-19.971v19.971h-6.627zm33.601 13.112q0-6.413 3.573-9.986 3.572-3.572 9.949-3.572 6.538 0 10.075 3.51t3.537 9.834q0 4.59-1.545 7.529t-4.466 4.573q-2.92 1.635-7.279 1.634-4.43 0-7.333-1.411t-4.707-4.466q-1.804-3.054-1.804-7.645m8.092.036q0 3.965 1.474 5.698t4.01 1.733q2.608 0 4.037-1.697 1.43-1.697 1.429-6.092 0-3.697-1.492-5.403t-4.046-1.706q-2.447 0-3.929 1.733-1.483 1.732-1.483 5.734m83.743-13.148h22.9v5.234l-14.683 15.327h15.219v5.627h-24.848v-5.431l14.523-15.165h-13.111zm27.402 0h8.11v26.188h-8.11zm13.826 0h10.646l4.109 15.934 4.09-15.934h10.611v26.188h-6.609v-19.971l-5.127 19.971h-5.984l-5.109-19.971v19.971h-6.627zm33.6 13.112q0-6.413 3.573-9.986 3.572-3.572 9.95-3.572 6.538 0 10.075 3.51t3.537 9.834q0 4.59-1.546 7.529-1.545 2.938-4.465 4.573t-7.28 1.634q-4.43 0-7.332-1.411-2.904-1.411-4.707-4.466-1.805-3.054-1.805-7.645m8.092.036q0 3.965 1.474 5.698t4.01 1.733q2.609 0 4.037-1.697 1.43-1.697 1.43-6.092 0-3.697-1.492-5.403t-4.046-1.706q-2.448 0-3.93 1.733-1.482 1.732-1.483 5.734m83.743-13.148h22.901v5.234l-14.684 15.327h15.22v5.627h-24.848v-5.431l14.523-15.165h-13.112zm27.402 0h8.11v26.188h-8.11zm13.826 0h10.647l4.108 15.934 4.091-15.934h10.611v26.188h-6.61v-19.971l-5.126 19.971h-5.985l-5.109-19.971v19.971h-6.627zm33.601 13.112q0-6.413 3.573-9.986 3.572-3.572 9.949-3.572 6.538 0 10.075 3.51t3.537 9.834q0 4.59-1.545 7.529t-4.466 4.573q-2.92 1.634-7.279 1.634-4.43 0-7.333-1.411t-4.707-4.466q-1.804-3.054-1.804-7.645m8.092.036q0 3.965 1.474 5.698t4.01 1.733q2.608 0 4.037-1.697 1.43-1.697 1.429-6.092 0-3.697-1.492-5.403t-4.046-1.706q-2.447 0-3.929 1.733-1.483 1.732-1.483 5.734m83.743-13.148h22.9v5.234l-14.683 15.327h15.219v5.627H587.96v-5.431l14.523-15.165h-13.111zm27.402 0h8.11v26.188h-8.11zm13.826 0h10.646l4.109 15.934 4.09-15.934h10.611v26.188h-6.609v-19.971l-5.127 19.971h-5.984l-5.109-19.971v19.971H630.6zm33.6 13.112q0-6.413 3.573-9.986 3.572-3.572 9.95-3.572 6.537 0 10.075 3.51t3.537 9.834q0 4.59-1.546 7.529-1.545 2.938-4.465 4.573t-7.28 1.634q-4.43 0-7.332-1.411-2.904-1.411-4.707-4.466-1.805-3.054-1.805-7.645m8.092.036q0 3.965 1.474 5.698t4.01 1.733q2.608 0 4.038-1.697 1.428-1.698 1.429-6.092 0-3.697-1.492-5.403t-4.046-1.706q-2.447 0-3.93 1.733-1.483 1.732-1.483 5.734m83.743-13.148h22.901v5.234l-14.684 15.327h15.22v5.627h-24.848v-5.431l14.523-15.165h-13.112zm27.402 0h8.11v26.188h-8.11zm13.826 0h10.647l4.108 15.934 4.091-15.934h10.611v26.188h-6.61v-19.971l-5.126 19.971h-5.985l-5.108-19.971v19.971h-6.628zm33.601 13.112q0-6.413 3.573-9.986 3.572-3.572 9.949-3.572 6.538 0 10.075 3.51t3.537 9.834q0 4.59-1.545 7.529t-4.466 4.573q-2.92 1.635-7.279 1.634-4.43 0-7.333-1.411-2.902-1.411-4.707-4.466-1.804-3.054-1.804-7.645m8.092.036q0 3.965 1.474 5.698t4.01 1.733q2.608 0 4.037-1.697 1.43-1.697 1.429-6.092 0-3.697-1.491-5.403t-4.047-1.706q-2.447 0-3.929 1.733-1.483 1.732-1.483 5.734m83.743-13.148h22.9v5.234l-14.683 15.327h15.219v5.627h-24.848v-5.431l14.523-15.165h-13.111zm27.402 0h8.11v26.188h-8.11zm13.826 0h10.646l4.109 15.934 4.09-15.934h10.611v26.188h-6.609v-19.971l-5.127 19.971h-5.984l-5.109-19.971v19.971h-6.627zm33.6 13.112q0-6.413 3.573-9.986c2.38-2.381 5.7-3.572 9.95-3.572 4.36 0 7.72 1.17 10.07 3.51q3.54 3.51 3.54 9.834c0 3.06-.51 5.57-1.54 7.529q-1.545 2.938-4.47 4.573c-1.95 1.09-4.37 1.634-7.28 1.634-2.95 0-5.4-.47-7.33-1.411q-2.91-1.411-4.708-4.466-1.805-3.054-1.805-7.645m8.093.036q0 3.965 1.47 5.698c.99 1.155 2.32 1.733 4.01 1.733 1.74 0 3.09-.566 4.04-1.697s1.43-3.162 1.43-6.092c0-2.465-.5-4.266-1.49-5.403q-1.5-1.706-4.05-1.706-2.445 0-3.93 1.733c-.99 1.155-1.48 3.066-1.48 5.734"/><path fill="url(#k)" d="M-156.165 797.107h22.9v5.234l-14.683 15.326h15.219v5.627h-24.847v-5.43l14.522-15.166h-13.111zm27.402 0h8.11v26.187h-8.11zm13.826 0h10.646l4.109 15.934 4.09-15.934h10.611v26.187h-6.609v-19.971l-5.127 19.971h-5.984l-5.109-19.971v19.971h-6.627zm33.601 13.111q0-6.413 3.572-9.985 3.573-3.573 9.95-3.573 6.538 0 10.075 3.51t3.537 9.834q0 4.59-1.545 7.529-1.546 2.939-4.466 4.573t-7.28 1.635q-4.43 0-7.332-1.412-2.903-1.41-4.707-4.465t-1.804-7.646m8.092.036q0 3.966 1.473 5.698 1.475 1.733 4.01 1.733 2.61 0 4.038-1.697t1.429-6.091q0-3.698-1.492-5.404t-4.046-1.706q-2.447 0-3.93 1.733-1.482 1.732-1.482 5.734m83.742-13.147h22.9v5.234l-14.683 15.326h15.22v5.627H9.087v-5.43l14.523-15.166H10.498zm27.402 0h8.11v26.187H37.9zm13.827 0h10.646l4.108 15.934 4.091-15.934h10.61v26.187h-6.609v-19.971l-5.126 19.971h-5.984l-5.11-19.971v19.971h-6.627zm33.6 13.111q0-6.413 3.573-9.985 3.572-3.573 9.95-3.573 6.537 0 10.074 3.51t3.537 9.834q0 4.59-1.545 7.529t-4.466 4.573-7.279 1.635q-4.43 0-7.333-1.412-2.903-1.41-4.707-4.465t-1.804-7.646m8.092.036q0 3.966 1.474 5.698t4.01 1.733q2.609 0 4.037-1.697 1.43-1.697 1.429-6.091 0-3.698-1.491-5.404t-4.046-1.706q-2.448 0-3.93 1.733-1.483 1.732-1.483 5.734m83.743-13.147h22.9v5.234l-14.683 15.326h15.219v5.627h-24.847v-5.43l14.522-15.166h-13.111zm27.402 0h8.11v26.187h-8.11zm13.826 0h10.646l4.109 15.934 4.091-15.934h10.61v26.187h-6.609v-19.971l-5.127 19.971h-5.984l-5.109-19.971v19.971h-6.627zm33.601 13.111q0-6.413 3.572-9.985 3.573-3.573 9.95-3.573 6.538 0 10.075 3.51t3.537 9.834q0 4.59-1.545 7.529t-4.466 4.573-7.279 1.635q-4.43 0-7.333-1.412-2.903-1.41-4.707-4.465t-1.804-7.646m8.092.036q0 3.966 1.473 5.698 1.475 1.733 4.011 1.733 2.607 0 4.037-1.697 1.428-1.697 1.429-6.091 0-3.698-1.492-5.404t-4.046-1.706q-2.447 0-3.93 1.733-1.482 1.732-1.482 5.734m83.742-13.147h22.901v5.234l-14.684 15.326h15.22v5.627h-24.848v-5.43l14.523-15.166h-13.112zm27.402 0h8.11v26.187h-8.11zm13.827 0H395.7l4.109 15.934 4.09-15.934h10.611v26.187h-6.609v-19.971l-5.127 19.971h-5.984l-5.109-19.971v19.971h-6.627zm33.6 13.111q0-6.413 3.573-9.985 3.573-3.573 9.95-3.573 6.538 0 10.074 3.51 3.537 3.51 3.537 9.834 0 4.59-1.545 7.529t-4.466 4.573-7.279 1.635q-4.43 0-7.333-1.412-2.903-1.41-4.707-4.465t-1.804-7.646m8.092.036q0 3.966 1.474 5.698t4.01 1.733q2.609 0 4.037-1.697 1.43-1.697 1.429-6.091 0-3.698-1.491-5.404t-4.046-1.706q-2.448 0-3.93 1.733-1.483 1.732-1.483 5.734m83.743-13.147h22.9v5.234l-14.683 15.326h15.219v5.627h-24.847v-5.43l14.522-15.166h-13.111zm27.402 0h8.11v26.187h-8.11zm13.826 0h10.647l4.108 15.934 4.091-15.934h10.61v26.187h-6.609v-19.971l-5.127 19.971h-5.984l-5.109-19.971v19.971h-6.627zm33.601 13.111q0-6.413 3.572-9.985 3.573-3.573 9.95-3.573 6.538 0 10.075 3.51t3.537 9.834q0 4.59-1.545 7.529t-4.466 4.573-7.279 1.635q-4.43 0-7.333-1.412-2.902-1.41-4.707-4.465t-1.804-7.646m8.092.036q0 3.966 1.473 5.698 1.475 1.733 4.011 1.733 2.607 0 4.037-1.697t1.429-6.091q0-3.698-1.492-5.404t-4.046-1.706q-2.446 0-3.93 1.733-1.482 1.732-1.482 5.734m83.742-13.147h22.901v5.234l-14.684 15.326h15.22v5.627h-24.848v-5.43l14.523-15.166h-13.112zm27.402 0h8.11v26.187h-8.11zm13.827 0h10.646l4.109 15.934 4.09-15.934h10.611v26.187h-6.609v-19.971l-5.127 19.971h-5.984l-5.109-19.971v19.971h-6.627zm33.6 13.111q0-6.413 3.573-9.985 3.572-3.573 9.95-3.573 6.538 0 10.074 3.51 3.537 3.51 3.537 9.834 0 4.59-1.545 7.529t-4.466 4.573q-2.92 1.635-7.279 1.635-4.43 0-7.333-1.412-2.903-1.41-4.707-4.465t-1.804-7.646m8.092.036q0 3.966 1.474 5.698t4.01 1.733q2.609 0 4.037-1.697 1.43-1.697 1.429-6.091 0-3.698-1.491-5.404t-4.046-1.706q-2.448 0-3.93 1.733-1.483 1.732-1.483 5.734m83.743-13.147h22.9v5.234l-14.683 15.326h15.219v5.627h-24.847v-5.43l14.522-15.166h-13.111zm27.402 0h8.11v26.187h-8.11zm13.826 0h10.647l4.108 15.934 4.091-15.934h10.61v26.187h-6.609v-19.971l-5.127 19.971h-5.984l-5.109-19.971v19.971h-6.627zm33.601 13.111q0-6.413 3.572-9.985 3.573-3.573 9.95-3.573 6.538 0 10.075 3.51t3.537 9.834q0 4.59-1.545 7.529t-4.466 4.573-7.279 1.635q-4.43 0-7.333-1.412-2.903-1.41-4.707-4.465t-1.804-7.646m8.092.036q0 3.966 1.473 5.698t4.011 1.733q2.607 0 4.037-1.697t1.429-6.091q0-3.698-1.492-5.404t-4.046-1.706q-2.447 0-3.93 1.733-1.482 1.732-1.482 5.734m83.743-13.147h22.9v5.234l-14.68 15.326h15.22v5.627h-24.85v-5.43l14.52-15.166h-13.11zm27.4 0h8.11v26.187h-8.11zm13.83 0h10.64l4.11 15.934 4.09-15.934h10.61v26.187h-6.61v-19.971l-5.12 19.971h-5.99l-5.11-19.971v19.971h-6.62zm33.6 13.111q0-6.413 3.57-9.985c2.38-2.382 5.7-3.573 9.95-3.573q6.54 0 10.08 3.51c2.35 2.34 3.53 5.618 3.53 9.834 0 3.06-.51 5.57-1.54 7.529q-1.545 2.939-4.47 4.573c-1.95 1.09-4.37 1.635-7.28 1.635-2.95 0-5.4-.471-7.33-1.412-1.94-.94-3.5-2.429-4.71-4.465q-1.8-3.055-1.8-7.646m8.09.036q0 3.966 1.47 5.698c.99 1.155 2.32 1.733 4.01 1.733 1.74 0 3.09-.566 4.04-1.697s1.43-3.162 1.43-6.091c0-2.465-.5-4.267-1.49-5.404-1-1.137-2.34-1.706-4.05-1.706q-2.445 0-3.93 1.733c-.99 1.155-1.48 3.066-1.48 5.734"/><path fill="url(#l)" d="M-77.282 884.5h22.9v5.234l-14.684 15.327h15.22v5.627h-24.848v-5.431l14.523-15.166h-13.111zm27.402 0h8.11v26.188h-8.11zm13.826 0h10.646l4.109 15.934 4.09-15.934h10.611v26.188h-6.61v-19.971l-5.126 19.971h-5.984l-5.11-19.971v19.971h-6.626zm33.6 13.112q0-6.413 3.573-9.986 3.573-3.572 9.95-3.572 6.538 0 10.075 3.51t3.537 9.833q0 4.591-1.546 7.53-1.545 2.938-4.465 4.573-2.921 1.634-7.28 1.634-4.43 0-7.333-1.411t-4.706-4.466q-1.805-3.055-1.805-7.645m8.092.036q0 3.965 1.474 5.698 1.475 1.733 4.01 1.733 2.61 0 4.037-1.697 1.43-1.697 1.43-6.092 0-3.697-1.492-5.403t-4.046-1.706q-2.448 0-3.93 1.732-1.482 1.734-1.483 5.735M89.381 884.5h22.901v5.234l-14.684 15.327h15.219v5.627H87.97v-5.431l14.523-15.166H89.381zm27.402 0h8.11v26.188h-8.11zm13.826 0h10.647l4.108 15.934 4.091-15.934h10.611v26.188h-6.61v-19.971l-5.126 19.971h-5.985l-5.109-19.971v19.971h-6.627zm33.601 13.112q0-6.413 3.573-9.986 3.572-3.572 9.949-3.572 6.538 0 10.075 3.51t3.537 9.833q0 4.591-1.545 7.53t-4.466 4.573q-2.92 1.634-7.279 1.634-4.43 0-7.333-1.411t-4.707-4.466-1.804-7.645m8.092.036q0 3.965 1.474 5.698t4.01 1.733q2.608 0 4.037-1.697 1.43-1.697 1.429-6.092 0-3.697-1.492-5.403t-4.046-1.706q-2.447 0-3.929 1.732-1.483 1.734-1.483 5.735m83.743-13.148h22.9v5.234l-14.683 15.327h15.219v5.627h-24.848v-5.431l14.523-15.166h-13.111zm27.402 0h8.11v26.188h-8.11zm13.826 0h10.646l4.109 15.934 4.09-15.934h10.611v26.188h-6.609v-19.971l-5.127 19.971h-5.984l-5.109-19.971v19.971h-6.627zm33.6 13.112q0-6.413 3.573-9.986 3.572-3.572 9.95-3.572 6.538 0 10.075 3.51t3.537 9.833q0 4.592-1.546 7.53-1.545 2.938-4.465 4.573-2.92 1.634-7.28 1.634-4.43 0-7.332-1.411-2.904-1.411-4.707-4.466-1.805-3.054-1.805-7.645m8.092.036q0 3.965 1.474 5.698t4.01 1.733q2.609 0 4.037-1.697 1.43-1.698 1.43-6.092 0-3.697-1.492-5.403-1.491-1.707-4.046-1.706-2.448 0-3.93 1.732-1.482 1.734-1.483 5.735m83.743-13.148h22.901v5.234l-14.684 15.327h15.22v5.627h-24.848v-5.431l14.523-15.166h-13.112zm27.402 0h8.11v26.188h-8.11zm13.826 0h10.647l4.108 15.934 4.091-15.934h10.611v26.188h-6.61v-19.971l-5.126 19.971h-5.985l-5.109-19.971v19.971h-6.627zm33.601 13.112q0-6.413 3.573-9.986 3.572-3.572 9.949-3.572 6.538 0 10.075 3.51t3.537 9.833q0 4.591-1.545 7.53t-4.466 4.573q-2.92 1.634-7.279 1.634-4.43 0-7.333-1.411t-4.707-4.466q-1.804-3.054-1.804-7.645m8.092.036q0 3.965 1.474 5.698t4.01 1.733q2.608 0 4.037-1.697 1.43-1.697 1.429-6.092 0-3.697-1.492-5.403-1.491-1.707-4.046-1.706-2.447 0-3.929 1.732-1.483 1.733-1.483 5.735m83.743-13.148h22.9v5.234l-14.683 15.327h15.219v5.627H587.96v-5.431l14.523-15.166h-13.111zm27.402 0h8.11v26.188h-8.11zm13.826 0h10.646l4.109 15.934 4.09-15.934h10.611v26.188h-6.609v-19.971l-5.127 19.971h-5.984l-5.109-19.971v19.971H630.6zm33.6 13.112q0-6.413 3.573-9.986 3.572-3.572 9.95-3.572 6.537 0 10.075 3.51t3.537 9.833q0 4.591-1.546 7.53-1.545 2.938-4.465 4.573-2.92 1.634-7.28 1.634-4.43 0-7.332-1.411-2.904-1.411-4.707-4.466-1.805-3.054-1.805-7.645m8.092.036q0 3.965 1.474 5.698t4.01 1.733q2.608 0 4.038-1.697 1.428-1.697 1.429-6.092 0-3.697-1.492-5.403-1.491-1.707-4.046-1.706-2.447 0-3.93 1.732-1.483 1.733-1.483 5.735m83.743-13.148h22.901v5.234l-14.684 15.327h15.22v5.627h-24.848v-5.431l14.523-15.166h-13.112zm27.402 0h8.11v26.188h-8.11zm13.826 0h10.647l4.108 15.934 4.091-15.934h10.611v26.188h-6.61v-19.971l-5.126 19.971h-5.985l-5.108-19.971v19.971h-6.628zm33.601 13.112q0-6.413 3.573-9.986 3.572-3.572 9.949-3.572 6.538 0 10.075 3.51t3.537 9.833q0 4.591-1.545 7.53t-4.466 4.573q-2.92 1.634-7.279 1.634-4.43 0-7.333-1.411-2.902-1.411-4.707-4.466t-1.804-7.645m8.092.036q0 3.965 1.474 5.698t4.01 1.733q2.608 0 4.037-1.697 1.43-1.697 1.429-6.092 0-3.697-1.491-5.403-1.492-1.707-4.047-1.706-2.447 0-3.929 1.732-1.483 1.733-1.483 5.735m83.743-13.148h22.9v5.234l-14.683 15.327h15.219v5.627h-24.848v-5.431l14.523-15.166h-13.111zm27.402 0h8.11v26.188h-8.11zm13.826 0h10.646l4.109 15.934 4.09-15.934h10.611v26.188h-6.609v-19.971l-5.127 19.971h-5.984l-5.109-19.971v19.971h-6.627zm33.6 13.112q0-6.413 3.573-9.986c2.38-2.381 5.7-3.572 9.95-3.572 4.36 0 7.72 1.17 10.07 3.51q3.54 3.51 3.54 9.833c0 3.061-.51 5.571-1.54 7.53q-1.545 2.938-4.47 4.573c-1.95 1.089-4.37 1.634-7.28 1.634-2.95 0-5.4-.47-7.33-1.411q-2.91-1.411-4.708-4.466-1.805-3.055-1.805-7.645m8.093.036q0 3.965 1.47 5.698c.99 1.155 2.32 1.733 4.01 1.733 1.74 0 3.09-.566 4.04-1.697s1.43-3.162 1.43-6.092c0-2.465-.5-4.266-1.49-5.403q-1.5-1.707-4.05-1.706-2.445 0-3.93 1.732c-.99 1.156-1.48 3.067-1.48 5.735"/><path fill="url(#m)" d="M-156.165 969.237h22.9v5.234l-14.683 15.327h15.219v5.627h-24.847v-5.43l14.522-15.166h-13.111zm27.402 0h8.11v26.188h-8.11zm13.826 0h10.646l4.109 15.934 4.09-15.934h10.611v26.188h-6.609v-19.971l-5.127 19.971h-5.984l-5.109-19.971v19.971h-6.627zm33.601 13.112q0-6.413 3.572-9.985 3.573-3.573 9.95-3.573 6.538 0 10.075 3.51t3.537 9.834q0 4.59-1.545 7.529-1.546 2.938-4.466 4.573t-7.28 1.634q-4.43 0-7.332-1.411-2.903-1.41-4.707-4.465t-1.804-7.646m8.092.036q0 3.966 1.473 5.698 1.475 1.733 4.01 1.733 2.61 0 4.038-1.697t1.429-6.091q0-3.699-1.492-5.404t-4.046-1.706q-2.447 0-3.93 1.733-1.482 1.732-1.482 5.734m83.742-13.148h22.9v5.234l-14.683 15.327h15.22v5.627H9.087v-5.43l14.523-15.166H10.498zm27.402 0h8.11v26.188H37.9zm13.827 0h10.646l4.108 15.934 4.091-15.934h10.61v26.188h-6.609v-19.971l-5.126 19.971h-5.984l-5.11-19.971v19.971h-6.627zm33.6 13.112q0-6.413 3.573-9.985 3.572-3.573 9.95-3.573 6.537 0 10.074 3.51t3.537 9.834q0 4.59-1.545 7.529t-4.466 4.573-7.279 1.634q-4.43 0-7.333-1.411-2.903-1.41-4.707-4.465t-1.804-7.646m8.092.036q0 3.966 1.474 5.698t4.01 1.733q2.609 0 4.037-1.697 1.43-1.697 1.429-6.091 0-3.699-1.491-5.404t-4.046-1.706q-2.448 0-3.93 1.733-1.483 1.732-1.483 5.734m83.743-13.148h22.9v5.234l-14.683 15.327h15.219v5.627h-24.847v-5.43l14.522-15.166h-13.111zm27.402 0h8.11v26.188h-8.11zm13.826 0h10.646l4.109 15.934 4.091-15.934h10.61v26.188h-6.609v-19.971l-5.127 19.971h-5.984l-5.109-19.971v19.971h-6.627zm33.601 13.112q0-6.413 3.572-9.985 3.573-3.573 9.95-3.573 6.538 0 10.075 3.51t3.537 9.834q0 4.59-1.545 7.529t-4.466 4.573-7.279 1.634q-4.43 0-7.333-1.411-2.903-1.41-4.707-4.465t-1.804-7.646m8.092.036q0 3.966 1.473 5.698 1.475 1.733 4.011 1.733 2.607 0 4.037-1.697 1.428-1.697 1.429-6.091 0-3.699-1.492-5.404t-4.046-1.706q-2.447 0-3.93 1.733-1.482 1.732-1.482 5.734m83.742-13.148h22.901v5.234l-14.684 15.327h15.22v5.627h-24.848v-5.43l14.523-15.166h-13.112zm27.402 0h8.11v26.188h-8.11zm13.827 0H395.7l4.109 15.934 4.09-15.934h10.611v26.188h-6.609v-19.971l-5.127 19.971h-5.984l-5.109-19.971v19.971h-6.627zm33.6 13.112q0-6.413 3.573-9.985 3.573-3.573 9.95-3.573 6.538 0 10.074 3.51 3.537 3.51 3.537 9.834 0 4.59-1.545 7.529t-4.466 4.573-7.279 1.634q-4.43 0-7.333-1.411-2.903-1.41-4.707-4.465t-1.804-7.646m8.092.036q0 3.966 1.474 5.698t4.01 1.733q2.609 0 4.037-1.697 1.43-1.697 1.429-6.091 0-3.699-1.491-5.404t-4.046-1.706q-2.448 0-3.93 1.733-1.483 1.732-1.483 5.734m83.743-13.148h22.9v5.234l-14.683 15.327h15.219v5.627h-24.847v-5.43l14.522-15.166h-13.111zm27.402 0h8.11v26.188h-8.11zm13.826 0h10.647l4.108 15.934 4.091-15.934h10.61v26.188h-6.609v-19.971l-5.127 19.971h-5.984l-5.109-19.971v19.971h-6.627zm33.601 13.112q0-6.413 3.572-9.985 3.573-3.573 9.95-3.573 6.538 0 10.075 3.51t3.537 9.834q0 4.59-1.545 7.529t-4.466 4.573-7.279 1.634q-4.43 0-7.333-1.411-2.902-1.41-4.707-4.465t-1.804-7.646m8.092.036q0 3.966 1.473 5.698 1.475 1.733 4.011 1.733 2.607 0 4.037-1.697t1.429-6.091q0-3.699-1.492-5.404t-4.046-1.706q-2.446 0-3.93 1.733-1.482 1.732-1.482 5.734m83.742-13.148h22.901v5.234l-14.684 15.327h15.22v5.627h-24.848v-5.43l14.523-15.166h-13.112zm27.402 0h8.11v26.188h-8.11zm13.827 0h10.646l4.109 15.934 4.09-15.934h10.611v26.188h-6.609v-19.971l-5.127 19.971h-5.984l-5.109-19.971v19.971h-6.627zm33.6 13.112q0-6.413 3.573-9.985 3.572-3.573 9.95-3.573 6.538 0 10.074 3.51 3.537 3.51 3.537 9.834 0 4.59-1.545 7.529t-4.466 4.573q-2.92 1.635-7.279 1.634-4.43 0-7.333-1.411-2.903-1.41-4.707-4.465t-1.804-7.646m8.092.036q0 3.966 1.474 5.698t4.01 1.733q2.609 0 4.037-1.697 1.43-1.697 1.429-6.091 0-3.699-1.491-5.404t-4.046-1.706q-2.448 0-3.93 1.733-1.483 1.732-1.483 5.734m83.743-13.148h22.9v5.234l-14.683 15.327h15.219v5.627h-24.847v-5.43l14.522-15.166h-13.111zm27.402 0h8.11v26.188h-8.11zm13.826 0h10.647l4.108 15.934 4.091-15.934h10.61v26.188h-6.609v-19.971l-5.127 19.971h-5.984l-5.109-19.971v19.971h-6.627zm33.601 13.112q0-6.413 3.572-9.985 3.573-3.573 9.95-3.573 6.538 0 10.075 3.51t3.537 9.834q0 4.59-1.545 7.529t-4.466 4.573-7.279 1.634q-4.43 0-7.333-1.411-2.903-1.41-4.707-4.465t-1.804-7.646m8.092.036q0 3.966 1.473 5.698t4.011 1.733q2.607 0 4.037-1.697t1.429-6.091q0-3.699-1.492-5.404t-4.046-1.706q-2.447 0-3.93 1.733-1.482 1.732-1.482 5.734m83.743-13.148h22.9v5.234l-14.68 15.327h15.22v5.627h-24.85v-5.43l14.52-15.166h-13.11zm27.4 0h8.11v26.188h-8.11zm13.83 0h10.64l4.11 15.934 4.09-15.934h10.61v26.188h-6.61v-19.971l-5.12 19.971h-5.99l-5.11-19.971v19.971h-6.62zm33.6 13.112q0-6.413 3.57-9.985c2.38-2.382 5.7-3.573 9.95-3.573q6.54 0 10.08 3.51c2.35 2.34 3.53 5.618 3.53 9.834 0 3.06-.51 5.57-1.54 7.529q-1.545 2.938-4.47 4.573c-1.95 1.09-4.37 1.634-7.28 1.634-2.95 0-5.4-.47-7.33-1.411-1.94-.94-3.5-2.429-4.71-4.465q-1.8-3.055-1.8-7.646m8.09.036q0 3.966 1.47 5.698c.99 1.155 2.32 1.733 4.01 1.733 1.74 0 3.09-.566 4.04-1.697s1.43-3.162 1.43-6.091c0-2.466-.5-4.267-1.49-5.404-1-1.137-2.34-1.706-4.05-1.706q-2.445 0-3.93 1.733c-.99 1.155-1.48 3.066-1.48 5.734"/></g></svg>