<svg width="1024" height="1024" viewBox="0 0 1024 1024" fill="none" xmlns="http://www.w3.org/2000/svg">
<g clip-path="url(#clip0_176_169)">
<path d="M34 512C34 248.008 248.008 34 512 34C775.992 34 990 248.008 990 512C990 775.992 775.992 990 512 990C248.008 990 34 775.992 34 512Z" fill="url(#paint0_linear_176_169)"/>
<path d="M748.412 449.005C485.086 450.152 271.392 658.997 262 919.466C334.747 964.159 420.382 990 512.056 990C776.018 990 990 776.279 990 512.639C990 512.285 989.972 511.937 989.972 511.582C918.589 471.453 836.181 448.623 748.412 449.005Z" fill="url(#paint1_linear_176_169)"/>
<path d="M244.75 451.005C169.309 451.335 97.953 468.853 34.323 499.796C34.211 504.046 34 508.281 34 512.559C34 684.882 124.962 835.871 261.32 920C267.416 750.261 359.842 602.484 496 519.588C422.496 475.69 336.54 450.604 244.75 451.005Z" fill="url(#paint2_linear_176_169)"/>
<path d="M260.875 921.071C123.592 836.607 32.011 685.015 32.011 512.004C32.011 507.708 32.224 503.457 32.335 499.189C96.398 468.123 168.24 450.535 244.192 450.203C336.607 449.8 423.147 474.988 497.151 519.06C360.067 602.288 267.013 750.654 260.875 921.071ZM260.875 921.071C270.309 659.167 484.918 449.172 749.371 448.018C837.516 447.635 920.277 470.589 991.962 510.941C991.972 511.297 992 511.648 992 512.004C992 777.096 777.096 992 512.004 992C419.936 992 333.935 966.016 260.875 921.071ZM32 511.992C32 246.9 246.9 32 511.992 32C777.084 32 991.981 246.9 991.981 511.992C991.981 777.084 777.086 991.981 511.992 991.981C246.898 991.981 32 777.086 32 511.992Z" stroke="#A24700" stroke-width="64" stroke-miterlimit="10" stroke-linecap="round" stroke-linejoin="round"/>
</g>
<defs>
<linearGradient id="paint0_linear_176_169" x1="62" y1="512" x2="962" y2="512" gradientUnits="userSpaceOnUse">
<stop stop-color="#FFBC00"/>
<stop offset="1" stop-color="#FF4F00"/>
</linearGradient>
<linearGradient id="paint1_linear_176_169" x1="284.3" y1="948.5" x2="1229.5" y2="948.5" gradientUnits="userSpaceOnUse">
<stop stop-color="#FFBC00"/>
<stop offset="1" stop-color="#FF4F00"/>
</linearGradient>
<linearGradient id="paint2_linear_176_169" x1="-232.2" y1="951" x2="713" y2="951" gradientUnits="userSpaceOnUse">
<stop stop-color="#FFBC00"/>
<stop offset="1" stop-color="#FF4F00"/>
</linearGradient>
<clipPath id="clip0_176_169">
<rect width="1024" height="1024" fill="white"/>
</clipPath>
</defs>
</svg>
